<svg version="1.1" id="Layer_1" xmlns="http://www.w3.org/2000/svg" xmlns:xlink="http://www.w3.org/1999/xlink" x="0px" y="0px"
	 width="100%" viewBox="0 0 2587 1564" enable-background="new 0 0 2587 1564" xml:space="preserve">
<path fill="#FFFFFF" opacity="1.000000" stroke="none" 
	d="
M1481.000000,1565.000000 
	C987.333313,1565.000000 494.166656,1565.000000 1.000000,1565.000000 
	C1.000000,1043.666626 1.000000,522.333313 1.000000,1.000000 
	C863.333313,1.000000 1725.666626,1.000000 2588.000000,1.000000 
	C2588.000000,522.333313 2588.000000,1043.666626 2588.000000,1565.000000 
	C2219.166748,1565.000000 1850.333374,1565.000000 1481.000000,1565.000000 
M1429.531494,1075.971313 
	C1439.782959,1079.327759 1449.867188,1083.375488 1460.318848,1085.905273 
	C1486.957520,1092.353149 1514.090088,1092.877686 1541.282837,1090.788574 
	C1572.391479,1088.398682 1602.495605,1081.808228 1630.690918,1067.976074 
	C1653.273560,1056.897339 1672.081299,1040.791626 1689.568115,1023.016663 
	C1690.795654,1021.769043 1691.293945,1019.803955 1692.131348,1018.172485 
	C1692.846680,1018.676331 1693.562012,1019.180176 1694.277344,1019.684082 
	C1695.338379,1040.052246 1701.071411,1058.986816 1710.880737,1076.753906 
	C1712.541138,1079.761475 1714.238403,1080.936157 1717.742188,1080.927734 
	C1769.568115,1080.804077 1821.394409,1080.844116 1873.220703,1080.830322 
	C1874.790527,1080.829956 1876.360229,1080.667725 1878.551392,1080.546631 
	C1877.380249,1077.710449 1876.541016,1075.399414 1875.494385,1073.186401 
	C1862.083252,1044.833374 1856.492920,1015.023804 1856.677368,983.640137 
	C1857.122070,907.986755 1856.757324,832.328674 1856.734863,756.672485 
	C1856.725952,726.894226 1851.267944,698.120239 1840.955566,670.224182 
	C1824.144897,624.749390 1791.694946,596.055176 1745.806152,582.091736 
	C1722.934448,575.132019 1699.287720,572.012573 1675.532104,570.325806 
	C1622.430542,566.555359 1569.374268,565.719604 1516.517090,574.074585 
	C1487.500366,578.661133 1460.044922,586.805542 1434.552246,602.225891 
	C1389.370728,629.555847 1370.439575,672.260010 1361.285889,721.787109 
	C1374.081055,723.269165 1386.629272,724.695862 1399.170532,726.180115 
	C1441.826538,731.228577 1484.476929,736.324707 1527.149536,741.228394 
	C1528.444824,741.377258 1530.609131,739.926453 1531.252686,738.656189 
	C1533.123047,734.964478 1534.301758,730.930603 1535.971924,727.127686 
	C1543.273926,710.499817 1553.122925,696.252563 1571.238281,689.818115 
	C1596.002686,681.022034 1621.381348,679.631714 1647.050293,684.257751 
	C1661.927124,686.938843 1672.941895,695.033264 1678.350586,709.802490 
	C1682.307617,720.608337 1683.351196,731.829285 1683.514282,743.170776 
	C1683.532104,744.408325 1681.825073,746.315430 1680.498779,746.829102 
	C1665.305054,752.713684 1650.181396,758.838562 1634.746948,764.030762 
	C1595.091064,777.371338 1554.009033,785.095703 1513.231567,793.942932 
	C1485.586182,799.940918 1457.918579,805.746399 1431.830322,817.118225 
	C1411.189209,826.115662 1391.724243,837.057129 1377.491821,855.045227 
	C1346.861572,893.758118 1341.034302,938.045105 1352.053955,984.546997 
	C1362.165405,1027.216431 1389.659302,1056.749146 1429.531494,1075.971313 
M744.151245,1044.346924 
	C802.034119,1084.150024 865.984924,1099.181396 935.338379,1089.509399 
	C991.935059,1081.616211 1041.595825,1057.797241 1082.022095,1017.368225 
	C1154.374023,945.011780 1179.598999,857.801453 1155.134033,758.609985 
	C1126.547241,642.706726 1023.527222,561.775208 904.325867,558.398743 
	C849.206665,556.837402 797.579468,570.149170 752.032288,601.289246 
	C660.089355,664.149536 619.329956,752.097351 632.853821,862.589966 
	C642.182678,938.808411 681.266968,998.980957 744.151245,1044.346924 
M1019.406921,516.991821 
	C1078.884644,544.121216 1124.572632,586.499939 1157.868652,642.483276 
	C1183.511230,685.598083 1198.985352,732.444153 1209.089600,781.362366 
	C1215.497803,812.386719 1217.252319,843.468262 1212.019531,874.678955 
	C1206.655396,906.672546 1199.878296,938.431702 1194.669189,970.447876 
	C1191.282227,991.264587 1189.126343,1012.318115 1187.353638,1033.344360 
	C1186.539917,1042.995728 1189.255859,1052.530151 1194.086914,1061.169434 
	C1204.474976,1079.746826 1225.521240,1083.290405 1241.422974,1069.149536 
	C1250.505737,1061.072632 1256.340210,1050.718750 1257.724243,1038.979370 
	C1259.725708,1022.003967 1260.763794,1004.822876 1260.798218,987.726746 
	C1260.872559,950.745300 1259.537476,913.759766 1259.706299,876.780151 
	C1259.986572,815.406860 1278.036621,758.742371 1307.495483,705.469727 
	C1347.777100,632.625427 1405.000366,575.586365 1473.465820,529.249878 
	C1520.184204,497.631622 1570.512085,473.176208 1623.536865,454.086487 
	C1628.279785,452.378967 1633.147339,449.900452 1636.812134,446.533813 
	C1646.181885,437.926544 1642.786377,425.348297 1630.506226,421.806091 
	C1622.199097,419.409912 1614.305664,421.352844 1606.762085,424.866058 
	C1579.910767,437.371155 1552.977905,449.711639 1526.313477,462.605530 
	C1461.294800,494.045837 1396.531616,526.017029 1331.393066,557.205139 
	C1312.535156,566.234253 1293.066162,574.238892 1273.308594,581.067200 
	C1253.032349,588.074829 1233.044434,586.295288 1213.472168,575.894226 
	C1185.114746,560.824646 1156.056641,547.075806 1127.324829,532.708740 
	C1085.802612,511.945892 1044.342529,491.038971 1000.873413,474.530518 
	C993.455261,471.713318 985.778625,469.226044 977.998657,467.810547 
	C970.168640,466.385925 963.416870,470.997314 960.884583,477.818878 
	C958.345459,484.658875 960.591003,492.286377 967.215454,496.674438 
	C970.747131,499.013794 974.969177,500.380615 978.986633,501.904175 
	C992.197571,506.914276 1005.457520,511.795410 1019.406921,516.991821 
M1259.783081,421.218414 
	C1241.354004,431.583313 1231.137573,447.369965 1230.029053,468.408478 
	C1229.506958,478.315125 1230.009766,488.405121 1231.300781,498.247772 
	C1233.253784,513.139587 1236.950684,527.706970 1245.166870,540.609558 
	C1249.589844,547.555176 1256.671631,549.414001 1263.772705,545.216431 
	C1267.854492,542.803650 1271.972290,539.761658 1274.794678,536.034180 
	C1284.231567,523.571045 1293.490601,510.933655 1302.078735,497.876862 
	C1314.721680,478.655579 1315.400024,458.164307 1306.052979,437.440308 
	C1296.895508,417.136627 1280.611450,411.438507 1259.783081,421.218414 
z"/>
<path fill="#28505C" opacity="1.000000" stroke="none" 
	d="
M1429.171753,1075.851074 
	C1389.659302,1056.749146 1362.165405,1027.216431 1352.053955,984.546997 
	C1341.034302,938.045105 1346.861572,893.758118 1377.491821,855.045227 
	C1391.724243,837.057129 1411.189209,826.115662 1431.830322,817.118225 
	C1457.918579,805.746399 1485.586182,799.940918 1513.231567,793.942932 
	C1554.009033,785.095703 1595.091064,777.371338 1634.746948,764.030762 
	C1650.181396,758.838562 1665.305054,752.713684 1680.498779,746.829102 
	C1681.825073,746.315430 1683.532104,744.408325 1683.514282,743.170776 
	C1683.351196,731.829285 1682.307617,720.608337 1678.350586,709.802490 
	C1672.941895,695.033264 1661.927124,686.938843 1647.050293,684.257751 
	C1621.381348,679.631714 1596.002686,681.022034 1571.238281,689.818115 
	C1553.122925,696.252563 1543.273926,710.499817 1535.971924,727.127686 
	C1534.301758,730.930603 1533.123047,734.964478 1531.252686,738.656189 
	C1530.609131,739.926453 1528.444824,741.377258 1527.149536,741.228394 
	C1484.476929,736.324707 1441.826538,731.228577 1399.170532,726.180115 
	C1386.629272,724.695862 1374.081055,723.269165 1361.285889,721.787109 
	C1370.439575,672.260010 1389.370728,629.555847 1434.552246,602.225891 
	C1460.044922,586.805542 1487.500366,578.661133 1516.517090,574.074585 
	C1569.374268,565.719604 1622.430542,566.555359 1675.532104,570.325806 
	C1699.287720,572.012573 1722.934448,575.132019 1745.806152,582.091736 
	C1791.694946,596.055176 1824.144897,624.749390 1840.955566,670.224182 
	C1851.267944,698.120239 1856.725952,726.894226 1856.734863,756.672485 
	C1856.757324,832.328674 1857.122070,907.986755 1856.677368,983.640137 
	C1856.492920,1015.023804 1862.083252,1044.833374 1875.494385,1073.186401 
	C1876.541016,1075.399414 1877.380249,1077.710449 1878.551392,1080.546631 
	C1876.360229,1080.667725 1874.790527,1080.829956 1873.220703,1080.830322 
	C1821.394409,1080.844116 1769.568115,1080.804077 1717.742188,1080.927734 
	C1714.238403,1080.936157 1712.541138,1079.761475 1710.880737,1076.753906 
	C1701.071411,1058.986816 1695.338379,1040.052246 1694.277344,1019.684082 
	C1693.562012,1019.180176 1692.846680,1018.676331 1692.131348,1018.172485 
	C1691.293945,1019.803955 1690.795654,1021.769043 1689.568115,1023.016663 
	C1672.081299,1040.791626 1653.273560,1056.897339 1630.690918,1067.976074 
	C1602.495605,1081.808228 1572.391479,1088.398682 1541.282837,1090.788574 
	C1514.090088,1092.877686 1486.957520,1092.353149 1460.318848,1085.905273 
	C1449.867188,1083.375488 1439.782959,1079.327759 1429.171753,1075.851074 
M1535.873535,966.595886 
	C1543.485352,976.003174 1553.651001,980.998779 1565.298706,983.005676 
	C1600.049683,988.992981 1629.521362,977.526550 1655.513062,955.122803 
	C1663.056396,948.620728 1668.570679,940.557739 1672.765625,931.511353 
	C1680.483765,914.867004 1683.094482,897.179382 1683.550415,879.094482 
	C1683.850098,867.207092 1683.606934,855.306030 1683.606934,842.935669 
	C1681.782227,843.561951 1680.555298,844.002747 1679.316040,844.405396 
	C1655.136353,852.261475 1631.021851,860.326111 1606.753174,867.897095 
	C1587.859253,873.791321 1568.739502,879.029358 1551.395752,888.908264 
	C1523.508667,904.792664 1516.197510,940.362244 1535.873535,966.595886 
z"/>
<path fill="#27505C" opacity="1.000000" stroke="none" 
	d="
M743.857666,1044.139160 
	C681.266968,998.980957 642.182678,938.808411 632.853821,862.589966 
	C619.329956,752.097351 660.089355,664.149536 752.032288,601.289246 
	C797.579468,570.149170 849.206665,556.837402 904.325867,558.398743 
	C1023.527222,561.775208 1126.547241,642.706726 1155.134033,758.609985 
	C1179.598999,857.801453 1154.374023,945.011780 1082.022095,1017.368225 
	C1041.595825,1057.797241 991.935059,1081.616211 935.338379,1089.509399 
	C865.984924,1099.181396 802.034119,1084.150024 743.857666,1044.139160 
M1008.730713,792.876221 
	C991.231018,736.053833 936.570374,701.133362 879.238159,710.148804 
	C815.632507,720.150757 772.859070,778.365479 781.822876,842.731201 
	C790.859436,907.619507 855.589172,953.125061 919.497864,939.517761 
	C986.929871,925.160339 1026.671265,860.360657 1008.730713,792.876221 
z"/>
<path fill="#F0532A" opacity="1.000000" stroke="none" 
	d="
M1019.052734,516.858948 
	C1005.457520,511.795410 992.197571,506.914276 978.986633,501.904175 
	C974.969177,500.380615 970.747131,499.013794 967.215454,496.674438 
	C960.591003,492.286377 958.345459,484.658875 960.884583,477.818878 
	C963.416870,470.997314 970.168640,466.385925 977.998657,467.810547 
	C985.778625,469.226044 993.455261,471.713318 1000.873413,474.530518 
	C1044.342529,491.038971 1085.802612,511.945892 1127.324829,532.708740 
	C1156.056641,547.075806 1185.114746,560.824646 1213.472168,575.894226 
	C1233.044434,586.295288 1253.032349,588.074829 1273.308594,581.067200 
	C1293.066162,574.238892 1312.535156,566.234253 1331.393066,557.205139 
	C1396.531616,526.017029 1461.294800,494.045837 1526.313477,462.605530 
	C1552.977905,449.711639 1579.910767,437.371155 1606.762085,424.866058 
	C1614.305664,421.352844 1622.199097,419.409912 1630.506226,421.806091 
	C1642.786377,425.348297 1646.181885,437.926544 1636.812134,446.533813 
	C1633.147339,449.900452 1628.279785,452.378967 1623.536865,454.086487 
	C1570.512085,473.176208 1520.184204,497.631622 1473.465820,529.249878 
	C1405.000366,575.586365 1347.777100,632.625427 1307.495483,705.469727 
	C1278.036621,758.742371 1259.986572,815.406860 1259.706299,876.780151 
	C1259.537476,913.759766 1260.872559,950.745300 1260.798218,987.726746 
	C1260.763794,1004.822876 1259.725708,1022.003967 1257.724243,1038.979370 
	C1256.340210,1050.718750 1250.505737,1061.072632 1241.422974,1069.149536 
	C1225.521240,1083.290405 1204.474976,1079.746826 1194.086914,1061.169434 
	C1189.255859,1052.530151 1186.539917,1042.995728 1187.353638,1033.344360 
	C1189.126343,1012.318115 1191.282227,991.264587 1194.669189,970.447876 
	C1199.878296,938.431702 1206.655396,906.672546 1212.019531,874.678955 
	C1217.252319,843.468262 1215.497803,812.386719 1209.089600,781.362366 
	C1198.985352,732.444153 1183.511230,685.598083 1157.868652,642.483276 
	C1124.572632,586.499939 1078.884644,544.121216 1019.052734,516.858948 
z"/>
<path fill="#F0532A" opacity="1.000000" stroke="none" 
	d="
M1260.127808,421.073486 
	C1280.611450,411.438507 1296.895508,417.136627 1306.052979,437.440308 
	C1315.400024,458.164307 1314.721680,478.655579 1302.078735,497.876862 
	C1293.490601,510.933655 1284.231567,523.571045 1274.794678,536.034180 
	C1271.972290,539.761658 1267.854492,542.803650 1263.772705,545.216431 
	C1256.671631,549.414001 1249.589844,547.555176 1245.166870,540.609558 
	C1236.950684,527.706970 1233.253784,513.139587 1231.300781,498.247772 
	C1230.009766,488.405121 1229.506958,478.315125 1230.029053,468.408478 
	C1231.137573,447.369965 1241.354004,431.583313 1260.127808,421.073486 
z"/>
<path fill="#FEFEFE" opacity="1.000000" stroke="none" 
	d="
M1535.647949,966.321472 
	C1516.197510,940.362244 1523.508667,904.792664 1551.395752,888.908264 
	C1568.739502,879.029358 1587.859253,873.791321 1606.753174,867.897095 
	C1631.021851,860.326111 1655.136353,852.261475 1679.316040,844.405396 
	C1680.555298,844.002747 1681.782227,843.561951 1683.606934,842.935669 
	C1683.606934,855.306030 1683.850098,867.207092 1683.550415,879.094482 
	C1683.094482,897.179382 1680.483765,914.867004 1672.765625,931.511353 
	C1668.570679,940.557739 1663.056396,948.620728 1655.513062,955.122803 
	C1629.521362,977.526550 1600.049683,988.992981 1565.298706,983.005676 
	C1553.651001,980.998779 1543.485352,976.003174 1535.647949,966.321472 
z"/>
<path fill="#FEFEFE" opacity="1.000000" stroke="none" 
	d="
M1008.841614,793.267578 
	C1026.671265,860.360657 986.929871,925.160339 919.497864,939.517761 
	C855.589172,953.125061 790.859436,907.619507 781.822876,842.731201 
	C772.859070,778.365479 815.632507,720.150757 879.238159,710.148804 
	C936.570374,701.133362 991.231018,736.053833 1008.841614,793.267578 
z"/>
</svg>